<svg width="17" height="17" viewBox="0 0 17 17" fill="none" xmlns="http://www.w3.org/2000/svg">
<path d="M16.5468 2.56951C16.6885 2.4328 16.8015 2.26924 16.8793 2.08838C16.9571 1.90751 16.9981 1.71297 16.9999 1.51609C17.0017 1.31922 16.9643 1.12395 16.8898 0.941694C16.8154 0.759436 16.7054 0.593833 16.5662 0.454549C16.4271 0.315265 16.2615 0.20509 16.0794 0.13045C15.8972 0.0558105 15.7019 0.0182028 15.5051 0.0198201C15.3082 0.0214375 15.1136 0.0622479 14.9327 0.13987C14.7517 0.217493 14.5881 0.330373 14.4512 0.471924L8.50839 6.41278L2.56753 0.471924C2.43179 0.326246 2.26809 0.209402 2.08621 0.128361C1.90433 0.0473203 1.70799 0.00374344 1.5089 0.000230754C1.30981 -0.00328193 1.11206 0.0333416 0.927428 0.107916C0.7428 0.18249 0.575085 0.293487 0.434286 0.434286C0.293487 0.575085 0.18249 0.742799 0.107916 0.927427C0.0333416 1.11205 -0.00328193 1.30981 0.000230754 1.5089C0.00374344 1.70799 0.0473203 1.90433 0.128361 2.08621C0.209402 2.26809 0.326246 2.43179 0.471924 2.56753L6.40883 8.51037L0.46797 14.4512C0.206059 14.7323 0.0634715 15.1041 0.070249 15.4882C0.0770266 15.8723 0.23264 16.2388 0.504304 16.5105C0.775968 16.7822 1.14247 16.9378 1.5266 16.9446C1.91074 16.9513 2.2825 16.8087 2.56358 16.5468L8.50839 10.606L14.4492 16.5488C14.7303 16.8107 15.1021 16.9533 15.4862 16.9465C15.8704 16.9398 16.2369 16.7841 16.5085 16.5125C16.7802 16.2408 16.9358 15.8743 16.9426 15.4902C16.9494 15.106 16.8068 14.7343 16.5449 14.4532L10.608 8.51037L16.5468 2.56951Z" fill="black"/>
</svg>
