<svg width="47" height="51" viewBox="0 0 47 51" fill="none" xmlns="http://www.w3.org/2000/svg">
<g clip-path="url(#clip0_54_1912)">
<path d="M35.4328 48.1667H11.5672C11.0648 48.1538 10.5697 48.0336 10.1101 47.8131C9.65055 47.5925 9.23553 47.2758 8.88878 46.8811C8.54203 46.4864 8.27034 46.0215 8.08924 45.5128C7.90815 45.0042 7.82119 44.4618 7.83333 43.9167V15.9092H10.4444V43.9167C10.432 44.0898 10.4512 44.2639 10.5009 44.4289C10.5507 44.5939 10.63 44.7467 10.7344 44.8783C10.8387 45.01 10.966 45.118 11.1089 45.196C11.2519 45.2741 11.4076 45.3208 11.5672 45.3333H35.4328C35.5924 45.3208 35.7481 45.2741 35.8911 45.196C36.034 45.118 36.1613 45.01 36.2656 44.8783C36.37 44.7467 36.4493 44.5939 36.4991 44.4289C36.5488 44.2639 36.568 44.0898 36.5556 43.9167V15.9092H39.1667V43.9167C39.1788 44.4618 39.0919 45.0042 38.9108 45.5128C38.7297 46.0215 38.458 46.4864 38.1112 46.8811C37.7645 47.2758 37.3494 47.5925 36.8899 47.8131C36.4303 48.0336 35.9352 48.1538 35.4328 48.1667Z" fill="#606C38"/>
<path d="M40.185 12.75H6.52778C6.18153 12.75 5.84946 12.6007 5.60462 12.3351C5.35978 12.0694 5.22223 11.7091 5.22223 11.3333C5.22223 10.9576 5.35978 10.5973 5.60462 10.3316C5.84946 10.0659 6.18153 9.91666 6.52778 9.91666H40.185C40.5313 9.91666 40.8633 10.0659 41.1082 10.3316C41.353 10.5973 41.4906 10.9576 41.4906 11.3333C41.4906 11.7091 41.353 12.0694 41.1082 12.3351C40.8633 12.6007 40.5313 12.75 40.185 12.75Z" fill="#606C38"/>
<path d="M27.4167 18.4167H30.0278V39.6667H27.4167V18.4167Z" fill="#606C38"/>
<path d="M16.9722 18.4167H19.5833V39.6667H16.9722V18.4167Z" fill="#606C38"/>
<path d="M30.0278 8.30167H27.5472V5.66667H19.4528V8.30167H16.9722V5.66667C16.9714 4.93914 17.2285 4.23913 17.6903 3.71167C18.1521 3.18421 18.7832 2.86971 19.4528 2.83334H27.5472C28.2169 2.86971 28.8479 3.18421 29.3097 3.71167C29.7715 4.23913 30.0286 4.93914 30.0278 5.66667V8.30167Z" fill="#606C38"/>
</g>
<defs>
<clipPath id="clip0_54_1912">
<rect width="47" height="51" fill="white"/>
</clipPath>
</defs>
</svg>
