<svg width="25" height="24" viewBox="0 0 25 24" fill="none" xmlns="http://www.w3.org/2000/svg">
<g clip-path="url(#clip0_48_1771)">
<path d="M22.0356 0.26962C22.0356 0.26962 2.97775 0.263995 2.98322 0.26962C1.22657 0.26962 0.239075 1.1415 0.239075 2.92237V21.2846C0.239075 22.9507 1.12697 23.823 2.88204 23.823H22.0902C23.8453 23.823 24.7344 22.9942 24.7344 21.2846V2.92237C24.7348 1.18462 23.8457 0.26962 22.0356 0.26962ZM12.0113 8.76524C12.0113 9.34124 11.4649 9.95812 10.7555 9.95812V19.6837C10.7555 21.0645 8.79533 21.0645 8.79533 19.6837V9.95812C8.10509 9.95812 7.50392 9.44774 7.50392 8.68312V3.33074C7.50392 2.865 8.20509 2.84699 8.20509 3.34912V7.30537H8.7922V3.31237C8.7922 2.8845 9.46759 2.85712 9.46759 3.33074V7.30537H10.0742V3.31799C10.0742 2.87062 10.7297 2.85262 10.7297 3.33562V7.30537H11.3266V3.31799C11.3266 2.87549 12.0113 2.85787 12.0113 3.33562V8.76524ZM17.2402 19.6792C17.2402 21.0296 15.2762 21.0094 15.2762 19.6792V13.686H14.2305V4.57462C14.2305 2.45362 17.2406 2.45362 17.2406 4.57462V19.6792H17.2402Z" fill="#283618"/>
</g>
<defs>
<clipPath id="clip0_48_1771">
<rect width="25" height="24" fill="white"/>
</clipPath>
</defs>
</svg>
