<svg width="30" height="27" viewBox="0 0 30 27" fill="none" xmlns="http://www.w3.org/2000/svg">
<path d="M15 11.2444L14.3512 11.8541C14.5258 12.0047 14.7582 12.0888 15 12.0888C15.2418 12.0888 15.4742 12.0047 15.6488 11.8541L15 11.2444ZM14.3575 14.697C13.8363 14.3527 13.26 13.9208 12.8237 13.4685C12.3637 12.9893 12.1875 12.6169 12.1875 12.375H10.3125C10.3125 13.2413 10.8638 14.0074 11.4062 14.5721C11.9725 15.1616 12.6737 15.678 13.2487 16.0571L14.3575 14.697ZM12.1875 12.375C12.1875 11.727 12.5162 11.4458 12.8025 11.3546C13.115 11.2556 13.695 11.2871 14.3525 11.8541L15.6488 10.6346C14.6175 9.74588 13.3225 9.40275 12.1825 9.76275C11.015 10.1306 10.3125 11.1409 10.3125 12.375H12.1875ZM16.75 16.0583C17.325 15.678 18.0275 15.1616 18.5938 14.5721C19.1362 14.0074 19.6875 13.2413 19.6875 12.375H17.8125C17.8125 12.6169 17.6362 12.9893 17.175 13.4685C16.74 13.9219 16.1637 14.3527 15.6425 14.697L16.7513 16.0583H16.75ZM19.6875 12.375C19.6875 11.1409 18.9837 10.1306 17.8175 9.76275C16.6775 9.40275 15.3825 9.747 14.3512 10.6346L15.6488 11.8541C16.305 11.2871 16.885 11.2556 17.1987 11.3546C17.4837 11.4446 17.8125 11.727 17.8125 12.375H19.6875ZM13.25 16.0583C13.71 16.362 14.2275 16.7411 15 16.7411V15.0536C14.97 15.0536 14.95 15.0536 14.8825 15.021C14.7 14.9232 14.5247 14.8149 14.3575 14.697L13.2487 16.0583H13.25ZM15.6425 14.697C15.4753 14.8149 15.3 14.9232 15.1175 15.021C15.05 15.0536 15.03 15.0536 15 15.0536V16.7411C15.7725 16.7411 16.29 16.362 16.75 16.0583L15.6425 14.697ZM6.25 16.407H7.1875C7.18741 16.2429 7.13414 16.0824 7.03424 15.9451C6.93433 15.8078 6.79211 15.6998 6.625 15.6341L6.25 16.407ZM23.75 16.407L23.375 15.6341C23.2079 15.6998 23.0657 15.8078 22.9658 15.9451C22.8659 16.0824 22.8126 16.2429 22.8125 16.407H23.75ZM19.6875 7.875C19.6875 8.09878 19.7863 8.31339 19.9621 8.47162C20.1379 8.62986 20.3764 8.71875 20.625 8.71875C20.8736 8.71875 21.1121 8.62986 21.2879 8.47162C21.4637 8.31339 21.5625 8.09878 21.5625 7.875H19.6875ZM8.4375 7.875C8.4375 8.09878 8.53627 8.31339 8.71209 8.47162C8.8879 8.62986 9.12636 8.71875 9.375 8.71875C9.62364 8.71875 9.8621 8.62986 10.0379 8.47162C10.2137 8.31339 10.3125 8.09878 10.3125 7.875H8.4375ZM17.5 23.9062C17.2514 23.9062 17.0129 23.9951 16.8371 24.1534C16.6613 24.3116 16.5625 24.5262 16.5625 24.75C16.5625 24.9738 16.6613 25.1884 16.8371 25.3466C17.0129 25.5049 17.2514 25.5938 17.5 25.5938V23.9062ZM12.5 25.5938C12.7486 25.5938 12.9871 25.5049 13.1629 25.3466C13.3387 25.1884 13.4375 24.9738 13.4375 24.75C13.4375 24.5262 13.3387 24.3116 13.1629 24.1534C12.9871 23.9951 12.7486 23.9062 12.5 23.9062V25.5938ZM8.75 4.78125C6.84376 4.78125 5.01559 5.46278 3.66767 6.6759C2.31975 7.88903 1.5625 9.53438 1.5625 11.25H3.4375C3.4375 9.98193 3.99721 8.7658 4.9935 7.86915C5.98978 6.97249 7.34104 6.46875 8.75 6.46875V4.78125ZM21.25 6.46875C22.659 6.46875 24.0102 6.97249 25.0065 7.86915C26.0028 8.7658 26.5625 9.98193 26.5625 11.25H28.4375C28.4375 9.53438 27.6802 7.88903 26.3323 6.6759C24.9844 5.46278 23.1562 4.78125 21.25 4.78125V6.46875ZM11.25 23.9062C10.045 23.9062 9.235 23.904 8.63125 23.8309C8.055 23.7611 7.8075 23.6407 7.645 23.4934L6.32 24.6881C6.88875 25.2 7.5975 25.4081 8.3825 25.5037C9.14 25.596 10.0975 25.5938 11.25 25.5938V23.9062ZM5.3125 20.25C5.3125 21.2873 5.31 22.149 5.4125 22.8308C5.5175 23.5373 5.75 24.1751 6.31875 24.687L7.645 23.4945C7.4825 23.3483 7.34875 23.1255 7.27 22.6057C7.19 22.0635 7.1875 21.3345 7.1875 20.25H5.3125ZM22.8125 20.25C22.8125 21.3345 22.81 22.0635 22.7288 22.6069C22.6513 23.1255 22.5175 23.3483 22.3537 23.4945L23.6812 24.687C24.25 24.1751 24.4813 23.5373 24.5875 22.8308C24.69 22.149 24.6875 21.2873 24.6875 20.25H22.8125ZM18.75 25.5938C19.9025 25.5938 20.86 25.596 21.6175 25.5037C22.4025 25.4093 23.1125 25.2 23.6812 24.687L22.355 23.4945C22.1925 23.6408 21.945 23.7611 21.3675 23.832C20.765 23.904 19.955 23.9062 18.75 23.9062V25.5938ZM8.75 6.46875C9.0175 6.46875 9.27875 6.48675 9.535 6.5205L9.80875 4.851C9.45821 4.80446 9.10434 4.78115 8.75 4.78125V6.46875ZM15 1.40625C13.6285 1.40625 12.2914 1.79285 11.1765 2.51177C10.0616 3.23069 9.22482 4.24582 8.78375 5.41463L10.5587 5.95687C10.874 5.12191 11.4718 4.39676 12.2684 3.88325C13.0649 3.36973 14.0202 3.09365 15 3.09375V1.40625ZM8.78375 5.41463C8.55378 6.02595 8.43681 6.66709 8.4375 7.3125H10.3125C10.3125 6.83663 10.4 6.381 10.56 5.95687L8.78375 5.41463ZM21.25 4.78125C20.8913 4.78125 20.5375 4.80487 20.1912 4.851L20.4662 6.5205C20.7257 6.48602 20.9877 6.46873 21.25 6.46875V4.78125ZM15 3.09375C15.9796 3.09388 16.9346 3.37008 17.7309 3.88357C18.5272 4.39707 19.1249 5.12209 19.44 5.95687L21.215 5.41463C20.774 4.246 19.9375 3.231 18.8228 2.5121C17.7081 1.7932 16.3713 1.40649 15 1.40625V3.09375ZM19.44 5.95687C19.6 6.381 19.6875 6.83663 19.6875 7.3125H21.5625C21.5625 6.64988 21.44 6.012 21.215 5.41463L19.4412 5.95687H19.44ZM7.1875 20.25V16.407H5.3125V20.25H7.1875ZM6.625 15.6341C5.67735 15.2617 4.87101 14.6486 4.30483 13.8699C3.73864 13.0911 3.43722 12.1806 3.4375 11.25H1.5625C1.56241 12.5088 1.97036 13.7404 2.73635 14.7936C3.50235 15.8469 4.59313 16.6762 5.875 17.1799L6.625 15.6341ZM22.8125 16.407V20.25H24.6875V16.407H22.8125ZM26.5625 11.25C26.5628 12.1806 26.2614 13.0911 25.6952 13.8699C25.129 14.6486 24.3227 15.2617 23.375 15.6341L24.125 17.1799C25.4069 16.6762 26.4976 15.8469 27.2636 14.7936C28.0296 13.7404 28.4376 12.5088 28.4375 11.25H26.5625ZM19.6875 7.3125V7.875H21.5625V7.3125H19.6875ZM8.4375 7.3125V7.875H10.3125V7.3125H8.4375ZM18.75 23.9062H17.5V25.5938H18.75V23.9062ZM12.5 23.9062H11.25V25.5938H12.5V23.9062Z" fill="#BC6C25"/>
<path d="M6.25 20.25H16.25M23.75 20.25H21.25" stroke="#BC6C25" stroke-width="1.5" stroke-linecap="round" stroke-linejoin="round"/>
</svg>
