<svg width="126" height="126" viewBox="0 0 126 126" fill="none" xmlns="http://www.w3.org/2000/svg">
<path d="M63 51.2498L59.9584 54.4261C60.7767 55.2105 61.8664 55.6485 63 55.6485C64.1335 55.6485 65.2233 55.2105 66.0416 54.4261L63 51.2498ZM59.9877 69.2355C57.5439 67.4422 54.8422 65.1918 52.7969 62.8359C50.6403 60.3393 49.8139 58.3995 49.8139 57.1395H41.0233C41.0233 61.6521 43.6077 65.6431 46.1512 68.585C48.8059 71.6559 52.0937 74.3458 54.7895 76.3208L59.9877 69.2355ZM49.8139 57.1395C49.8139 53.7639 51.3552 52.2988 52.6973 51.8241C54.1624 51.3084 56.8817 51.4725 59.9643 54.4261L66.0416 48.0734C61.2067 43.4436 55.1353 41.6562 49.7905 43.5315C44.3168 45.4479 41.0233 50.7106 41.0233 57.1395H49.8139ZM71.2046 76.3267C73.9005 74.3458 77.194 71.6559 79.8488 68.585C82.3923 65.6431 84.9767 61.6521 84.9767 57.1395H76.186C76.186 58.3995 75.3597 60.3393 73.1972 62.8359C71.1578 65.1977 68.4561 67.4422 66.0123 69.2355L71.2105 76.3267H71.2046ZM84.9767 57.1395C84.9767 50.7106 81.6773 45.4479 76.2095 43.5315C70.8647 41.6562 64.7933 43.4495 59.9584 48.0734L66.0416 54.4261C69.1183 51.4725 71.8376 51.3084 73.3085 51.8241C74.6447 52.2929 76.186 53.7639 76.186 57.1395H84.9767ZM54.7953 76.3267C56.952 77.909 59.3782 79.884 63 79.884V71.0933C62.8593 71.0933 62.7656 71.0933 62.4491 70.9233C61.5936 70.4137 60.7714 69.8499 59.9877 69.2355L54.7895 76.3267H54.7953ZM66.0123 69.2355C65.2285 69.8499 64.4064 70.4137 63.5509 70.9233C63.2344 71.0933 63.1406 71.0933 63 71.0933V79.884C66.6218 79.884 69.048 77.909 71.2046 76.3267L66.0123 69.2355ZM21.9767 78.1434H26.3721C26.3716 77.2886 26.1219 76.4524 25.6535 75.7373C25.1851 75.0222 24.5184 74.4592 23.7349 74.1173L21.9767 78.1434ZM104.023 78.1434L102.265 74.1173C101.482 74.4592 100.815 75.0222 100.346 75.7373C99.878 76.4524 99.6283 77.2886 99.6279 78.1434H104.023ZM84.9767 33.6977C84.9767 34.8634 85.4398 35.9814 86.2641 36.8056C87.0884 37.6299 88.2064 38.093 89.3721 38.093C90.5378 38.093 91.6558 37.6299 92.4801 36.8056C93.3044 35.9814 93.7674 34.8634 93.7674 33.6977H84.9767ZM32.2326 33.6977C32.2326 34.8634 32.6956 35.9814 33.5199 36.8056C34.3442 37.6299 35.4622 38.093 36.6279 38.093C37.7936 38.093 38.9116 37.6299 39.7359 36.8056C40.5602 35.9814 41.0233 34.8634 41.0233 33.6977H32.2326ZM74.7209 117.209C73.5552 117.209 72.4372 117.672 71.6129 118.497C70.7887 119.321 70.3256 120.439 70.3256 121.605C70.3256 122.77 70.7887 123.888 71.6129 124.713C72.4372 125.537 73.5552 126 74.7209 126V117.209ZM51.2791 126C52.4448 126 53.5628 125.537 54.387 124.713C55.2113 123.888 55.6744 122.77 55.6744 121.605C55.6744 120.439 55.2113 119.321 54.387 118.497C53.5628 117.672 52.4448 117.209 51.2791 117.209V126ZM33.6977 17.5814C24.7605 17.5814 16.1894 21.1317 9.86982 27.4512C3.55028 33.7707 7.49028e-08 42.3419 7.49028e-08 51.2791H8.7907C8.7907 44.6733 11.4148 38.3381 16.0858 33.6672C20.7567 28.9962 27.0919 26.3721 33.6977 26.3721V17.5814ZM92.3023 26.3721C98.9081 26.3721 105.243 28.9962 109.914 33.6672C114.585 38.3381 117.209 44.6733 117.209 51.2791H126C126 42.3419 122.45 33.7707 116.13 27.4512C109.811 21.1317 101.239 17.5814 92.3023 17.5814V26.3721ZM45.4186 117.209C39.7691 117.209 35.9715 117.198 33.1409 116.817C30.4393 116.453 29.2789 115.826 28.517 115.058L22.3049 121.282C24.9714 123.949 28.2943 125.033 31.9747 125.531C35.5261 126.012 40.0153 126 45.4186 126V117.209ZM17.5814 98.1628C17.5814 103.566 17.5697 108.055 18.0502 111.607C18.5425 115.287 19.6326 118.61 22.2991 121.276L28.517 115.064C27.7552 114.302 27.1281 113.142 26.7589 110.435C26.3838 107.61 26.3721 103.812 26.3721 98.1628H17.5814ZM99.6279 98.1628C99.6279 103.812 99.6162 107.61 99.2352 110.44C98.8719 113.142 98.2448 114.302 97.4771 115.064L103.701 121.276C106.367 118.61 107.452 115.287 107.95 111.607C108.43 108.055 108.419 103.566 108.419 98.1628H99.6279ZM80.5814 126C85.9847 126 90.4739 126.012 94.0253 125.531C97.7057 125.039 101.034 123.949 103.701 121.276L97.483 115.064C96.7211 115.826 95.5607 116.453 92.8532 116.822C90.0285 117.198 86.2309 117.209 80.5814 117.209V126ZM33.6977 26.3721C34.9518 26.3721 36.1766 26.4659 37.378 26.6417L38.6615 17.9447C37.018 17.7023 35.3589 17.5809 33.6977 17.5814V26.3721ZM63 0C56.5697 6.64735e-06 50.301 2.01393 45.0738 5.75899C39.8467 9.50405 35.9238 14.7922 33.8559 20.8808L42.1778 23.7056C43.6556 19.356 46.4585 15.5785 50.1931 12.9034C53.9276 10.2284 58.4062 8.79015 63 8.7907V0ZM33.8559 20.8808C32.7777 24.0654 32.2293 27.4053 32.2326 30.7674H41.0233C41.0233 28.2885 41.4335 25.915 42.1836 23.7056L33.8559 20.8808ZM92.3023 17.5814C90.6204 17.5814 88.9618 17.7045 87.3385 17.9447L88.6278 26.6417C89.8444 26.4621 91.0725 26.372 92.3023 26.3721V17.5814ZM63 8.7907C67.5928 8.79138 72.0701 10.2302 75.8034 12.9051C79.5368 15.5801 82.3389 19.3569 83.8164 23.7056L92.1382 20.8808C90.0706 14.7931 86.1486 9.50567 80.9227 5.76069C75.6967 2.01572 69.4292 0.00123084 63 0V8.7907ZM83.8164 23.7056C84.5665 25.915 84.9767 28.2885 84.9767 30.7674H93.7674C93.7674 27.3156 93.1931 23.9927 92.1382 20.8808L83.8222 23.7056H83.8164ZM26.3721 98.1628V78.1434H17.5814V98.1628H26.3721ZM23.7349 74.1173C19.2919 72.1774 15.5115 68.9834 12.8571 64.9267C10.2026 60.87 8.78938 56.127 8.7907 51.2791H7.49028e-08C-0.000437025 57.8367 1.91218 64.2521 5.50347 69.7389C9.09475 75.2258 14.2087 79.5458 20.2186 82.1696L23.7349 74.1173ZM99.6279 78.1434V98.1628H108.419V78.1434H99.6279ZM117.209 51.2791C117.211 56.127 115.797 60.87 113.143 64.9267C110.488 68.9834 106.708 72.1774 102.265 74.1173L105.781 82.1696C111.791 79.5458 116.905 75.2258 120.497 69.7389C124.088 64.2521 126 57.8367 126 51.2791H117.209ZM84.9767 30.7674V33.6977H93.7674V30.7674H84.9767ZM32.2326 30.7674V33.6977H41.0233V30.7674H32.2326ZM80.5814 117.209H74.7209V126H80.5814V117.209ZM51.2791 117.209H45.4186V126H51.2791V117.209Z" fill="#BC6C25"/>
<path d="M21.9767 98.1628H68.8605M104.023 98.1628H92.3023" stroke="#BC6C25" stroke-width="1.5" stroke-linecap="round" stroke-linejoin="round"/>
</svg>
