<svg width="25" height="23" viewBox="0 0 25 23" fill="none" xmlns="http://www.w3.org/2000/svg">
<path d="M12.5 9.35511L11.8965 9.93493C12.0589 10.0781 12.2751 10.1581 12.5 10.1581C12.7249 10.1581 12.9411 10.0781 13.1035 9.93493L12.5 9.35511ZM11.9023 12.6382C11.4174 12.3109 10.8814 11.9001 10.4756 11.47C10.0477 11.0143 9.88372 10.6602 9.88372 10.4302H8.13953C8.13953 11.254 8.65233 11.9825 9.15698 12.5195C9.68372 13.08 10.336 13.5711 10.8709 13.9316L11.9023 12.6382ZM9.88372 10.4302C9.88372 9.81404 10.1895 9.5466 10.4558 9.45995C10.7465 9.36581 11.286 9.39577 11.8977 9.93493L13.1035 8.7753C12.1442 7.93018 10.9395 7.60391 9.87907 7.94623C8.79302 8.29605 8.13953 9.2567 8.13953 10.4302H9.88372ZM14.1279 13.9326C14.6628 13.5711 15.3163 13.08 15.843 12.5195C16.3477 11.9825 16.8605 11.254 16.8605 10.4302H15.1163C15.1163 10.6602 14.9523 11.0143 14.5233 11.47C14.1186 11.9012 13.5826 12.3109 13.0977 12.6382L14.1291 13.9326H14.1279ZM16.8605 10.4302C16.8605 9.2567 16.2058 8.29605 15.1209 7.94623C14.0605 7.60391 12.8558 7.93125 11.8965 8.7753L13.1035 9.93493C13.714 9.39577 14.2535 9.36581 14.5453 9.45995C14.8105 9.54553 15.1163 9.81404 15.1163 10.4302H16.8605ZM10.8721 13.9326C11.3 14.2215 11.7814 14.582 12.5 14.582V12.9773C12.4721 12.9773 12.4535 12.9773 12.3907 12.9463C12.2209 12.8533 12.0578 12.7504 11.9023 12.6382L10.8709 13.9326H10.8721ZM13.0977 12.6382C12.9422 12.7504 12.7791 12.8533 12.6093 12.9463C12.5465 12.9773 12.5279 12.9773 12.5 12.9773V14.582C13.2186 14.582 13.7 14.2215 14.1279 13.9326L13.0977 12.6382ZM4.36047 14.2643H5.23256C5.23247 14.1082 5.18292 13.9556 5.08999 13.8251C4.99705 13.6945 4.86476 13.5918 4.7093 13.5293L4.36047 14.2643ZM20.6395 14.2643L20.2907 13.5293C20.1352 13.5918 20.0029 13.6945 19.91 13.8251C19.8171 13.9556 19.7675 14.1082 19.7674 14.2643H20.6395ZM16.8605 6.15116C16.8605 6.36395 16.9523 6.56803 17.1159 6.71849C17.2794 6.86896 17.5013 6.95349 17.7326 6.95349C17.9639 6.95349 18.1857 6.86896 18.3492 6.71849C18.5128 6.56803 18.6047 6.36395 18.6047 6.15116H16.8605ZM6.39535 6.15116C6.39535 6.36395 6.48723 6.56803 6.65078 6.71849C6.81433 6.86896 7.03615 6.95349 7.26744 6.95349C7.49873 6.95349 7.72055 6.86896 7.8841 6.71849C8.04765 6.56803 8.13953 6.36395 8.13953 6.15116H6.39535ZM14.8256 21.3953C14.5943 21.3953 14.3725 21.4799 14.2089 21.6303C14.0454 21.7808 13.9535 21.9849 13.9535 22.1977C13.9535 22.4105 14.0454 22.6145 14.2089 22.765C14.3725 22.9155 14.5943 23 14.8256 23V21.3953ZM10.1744 23C10.4057 23 10.6275 22.9155 10.7911 22.765C10.9546 22.6145 11.0465 22.4105 11.0465 22.1977C11.0465 21.9849 10.9546 21.7808 10.7911 21.6303C10.6275 21.4799 10.4057 21.3953 10.1744 21.3953V23ZM6.68605 3.2093C4.9128 3.2093 3.21217 3.85737 1.9583 5.01094C0.704421 6.1645 1.48617e-08 7.72907 1.48617e-08 9.36046H1.74419C1.74419 8.15465 2.26484 6.99823 3.19162 6.1456C4.1184 5.29296 5.37538 4.81395 6.68605 4.81395V3.2093ZM18.314 4.81395C19.6246 4.81395 20.8816 5.29296 21.8084 6.1456C22.7352 6.99823 23.2558 8.15465 23.2558 9.36046H25C25 7.72907 24.2956 6.1645 23.0417 5.01094C21.7878 3.85737 20.0872 3.2093 18.314 3.2093V4.81395ZM9.01163 21.3953C7.8907 21.3953 7.13721 21.3932 6.57558 21.3237C6.03954 21.2573 5.8093 21.1429 5.65814 21.0027L4.42558 22.1388C4.95465 22.6256 5.61395 22.8235 6.34419 22.9144C7.04884 23.0021 7.93953 23 9.01163 23V21.3953ZM3.48837 17.9186C3.48837 18.9049 3.48605 19.7244 3.5814 20.3726C3.67907 21.0445 3.89535 21.651 4.42442 22.1378L5.65814 21.0038C5.50698 20.8647 5.38256 20.6529 5.3093 20.1587C5.23488 19.6431 5.23256 18.9499 5.23256 17.9186H3.48837ZM19.7674 17.9186C19.7674 18.9499 19.7651 19.6431 19.6895 20.1598C19.6174 20.6529 19.493 20.8647 19.3407 21.0038L20.5756 22.1378C21.1047 21.651 21.3198 21.0445 21.4186 20.3726C21.514 19.7244 21.5116 18.9049 21.5116 17.9186H19.7674ZM15.9884 23C17.0605 23 17.9512 23.0021 18.6558 22.9144C19.386 22.8246 20.0465 22.6256 20.5756 22.1378L19.3419 21.0038C19.1907 21.1429 18.9605 21.2573 18.4233 21.3247C17.8628 21.3932 17.1093 21.3953 15.9884 21.3953V23ZM6.68605 4.81395C6.93488 4.81395 7.17791 4.83107 7.41628 4.86316L7.67093 3.27563C7.34484 3.23138 7.01566 3.20921 6.68605 3.2093V4.81395ZM12.5 0C11.2242 1.2134e-06 9.98035 0.367622 8.94322 1.05124C7.9061 1.73487 7.12774 2.70016 6.71744 3.81158L8.3686 4.32721C8.66182 3.53324 9.21796 2.84369 9.95894 2.35539C10.6999 1.86708 11.5885 1.60455 12.5 1.60465V0ZM6.71744 3.81158C6.50352 4.39289 6.39471 5.00255 6.39535 5.61628H8.13953C8.13953 5.16377 8.22093 4.73051 8.36977 4.32721L6.71744 3.81158ZM18.314 3.2093C17.9802 3.2093 17.6512 3.23177 17.3291 3.27563L17.5849 4.86316C17.8263 4.83038 18.0699 4.81393 18.314 4.81395V3.2093ZM12.5 1.60465C13.4113 1.60478 14.2996 1.86741 15.0404 2.3557C15.7811 2.84398 16.3371 3.53341 16.6302 4.32721L18.2814 3.81158C17.8712 2.70033 17.093 1.73516 16.0561 1.05156C15.0192 0.367949 13.7756 0.000224677 12.5 0V1.60465ZM16.6302 4.32721C16.7791 4.73051 16.8605 5.16377 16.8605 5.61628H18.6047C18.6047 4.98619 18.4907 4.37963 18.2814 3.81158L16.6314 4.32721H16.6302ZM5.23256 17.9186V14.2643H3.48837V17.9186H5.23256ZM4.7093 13.5293C3.82777 13.1752 3.07768 12.5922 2.551 11.8517C2.02432 11.1112 1.74392 10.2454 1.74419 9.36046H1.48617e-08C-8.67114e-05 10.5575 0.379401 11.7286 1.09196 12.7301C1.80451 13.7317 2.81919 14.5203 4.01163 14.9992L4.7093 13.5293ZM19.7674 14.2643V17.9186H21.5116V14.2643H19.7674ZM23.2558 9.36046C23.2561 10.2454 22.9757 11.1112 22.449 11.8517C21.9223 12.5922 21.1722 13.1752 20.2907 13.5293L20.9884 14.9992C22.1808 14.5203 23.1955 13.7317 23.908 12.7301C24.6206 11.7286 25.0001 10.5575 25 9.36046H23.2558ZM16.8605 5.61628V6.15116H18.6047V5.61628H16.8605ZM6.39535 5.61628V6.15116H8.13953V5.61628H6.39535ZM15.9884 21.3953H14.8256V23H15.9884V21.3953ZM10.1744 21.3953H9.01163V23H10.1744V21.3953Z" fill="#283618"/>
<path d="M4.36046 17.9186H13.6628H4.36046ZM20.6395 17.9186H18.3139H20.6395Z" fill="#283618"/>
<path d="M4.36046 17.9186H13.6628M20.6395 17.9186H18.3139" stroke="#283618" stroke-width="1.5" stroke-linecap="round" stroke-linejoin="round"/>
</svg>
