<?xml version="1.0" standalone="no"?>
<!DOCTYPE svg PUBLIC "-//W3C//DTD SVG 20010904//EN"
 "http://www.w3.org/TR/2001/REC-SVG-20010904/DTD/svg10.dtd">
<svg version="1.0" xmlns="http://www.w3.org/2000/svg"
 width="512px" height="512px" viewBox="0 0 512.000000 512.000000"
 preserveAspectRatio="xMidYMid meet">

<g transform="translate(0.000000,512.000000) scale(0.100000,-0.100000)"
fill="#000000" stroke="none">
<path d="M1029 5106 c-215 -60 -389 -243 -428 -451 -9 -44 -11 -609 -9 -2130
l3 -2070 22 -59 c66 -174 195 -303 369 -369 l59 -22 1515 0 1515 0 59 22 c174
66 303 195 369 369 l22 59 0 2105 0 2105 -22 59 c-66 174 -195 303 -369 369
l-59 22 -1500 2 c-1189 1 -1510 -1 -1546 -11z m3101 -2546 l0 -2160 -1570 0
-1570 0 0 2160 0 2160 1570 0 1570 0 0 -2160z"/>
<path d="M1370 3740 l0 -200 205 0 205 0 0 200 0 200 -205 0 -205 0 0 -200z"/>
<path d="M2160 3740 l0 -200 795 0 795 0 0 200 0 200 -795 0 -795 0 0 -200z"/>
<path d="M1370 2955 l0 -205 205 0 205 0 0 205 0 205 -205 0 -205 0 0 -205z"/>
<path d="M2160 2955 l0 -205 695 0 695 0 0 205 0 205 -695 0 -695 0 0 -205z"/>
<path d="M1370 2165 l0 -205 205 0 205 0 0 205 0 205 -205 0 -205 0 0 -205z"/>
<path d="M2160 2165 l0 -205 795 0 795 0 0 205 0 205 -795 0 -795 0 0 -205z"/>
<path d="M1370 1380 l0 -200 205 0 205 0 0 200 0 200 -205 0 -205 0 0 -200z"/>
<path d="M2160 1380 l0 -200 695 0 695 0 0 200 0 200 -695 0 -695 0 0 -200z"/>
</g>
</svg>
