<svg width="31" height="32" viewBox="0 0 31 32" fill="none" xmlns="http://www.w3.org/2000/svg">
<path d="M27.305 32H3.69501C3.198 31.9872 2.70818 31.868 2.25352 31.6492C1.79887 31.4304 1.38829 31.1163 1.04525 30.7247C0.702213 30.3332 0.433436 29.872 0.254278 29.3674C0.075119 28.8628 -0.0109101 28.3247 0.00110554 27.7839V0H2.58425V27.7839C2.57192 27.9557 2.59092 28.1284 2.64014 28.2921C2.68936 28.4558 2.76784 28.6073 2.87107 28.7379C2.97429 28.8685 3.10023 28.9756 3.24163 29.0531C3.38303 29.1306 3.53711 29.1768 3.69501 29.1893H27.305C27.4629 29.1768 27.617 29.1306 27.7584 29.0531C27.8998 28.9756 28.0257 28.8685 28.1289 28.7379C28.2322 28.6073 28.3106 28.4558 28.3599 28.2921C28.4091 28.1284 28.4281 27.9557 28.4157 27.7839V0H30.9989V27.7839C31.0109 28.3247 30.9249 28.8628 30.7457 29.3674C30.5666 29.872 30.2978 30.3332 29.9547 30.7247C29.6117 31.1163 29.2011 31.4304 28.7465 31.6492C28.2918 31.868 27.802 31.9872 27.305 32Z" fill="#606C38"/>
</svg>
