<?xml version="1.0" encoding="UTF-8"?>
<!DOCTYPE svg PUBLIC "-//W3C//DTD SVG 1.1//EN" "http://www.w3.org/Graphics/SVG/1.1/DTD/svg11.dtd">
<svg xmlns="http://www.w3.org/2000/svg" version="1.1" width="162px" height="176px" style="shape-rendering:geometricPrecision; text-rendering:geometricPrecision; image-rendering:optimizeQuality; fill-rule:evenodd; clip-rule:evenodd" xmlns:xlink="http://www.w3.org/1999/xlink">
<g><path style="opacity:0.991" fill="#2c3819" d="M 74.5,27.5 C 91.025,25.8814 101.858,32.8814 107,48.5C 107.529,69.3045 97.3622,79.4712 76.5,79C 58.8424,74.5105 51.6758,63.3438 55,45.5C 58.5445,36.1157 65.0445,30.1157 74.5,27.5 Z"/></g>
<g><path style="opacity:0.994" fill="#2a3719" d="M 75.5,97.5 C 93.6866,96.7116 110.353,101.212 125.5,111C 133.19,118.593 135.69,127.76 133,138.5C 129.92,146.574 124.087,151.407 115.5,153C 92.1667,157.667 68.8333,157.667 45.5,153C 28.6792,147.703 23.1792,136.537 29,119.5C 33.6032,112.571 39.7699,107.405 47.5,104C 56.6942,100.599 66.0275,98.4322 75.5,97.5 Z"/></g>
</svg>
